<svg xmlns="http://www.w3.org/2000/svg" width="512" height="512" viewBox="0 0 512 512">
  <rect width="512" height="512" rx="64" fill="#0f0f23"/>
  <rect x="80" y="100" width="352" height="320" rx="24" fill="none" stroke="#6366f1" stroke-width="16"/>
  <line x1="168" y1="72" x2="168" y2="132" stroke="#6366f1" stroke-width="16" stroke-linecap="round"/>
  <line x1="344" y1="72" x2="344" y2="132" stroke="#6366f1" stroke-width="16" stroke-linecap="round"/>
  <line x1="80" y1="196" x2="432" y2="196" stroke="#6366f1" stroke-width="12"/>
  <rect x="120" y="228" width="72" height="48" rx="8" fill="#6366f1"/>
  <rect x="220" y="228" width="72" height="48" rx="8" fill="#6366f1" opacity="0.7"/>
  <rect x="320" y="228" width="72" height="48" rx="8" fill="#6366f1" opacity="0.5"/>
  <rect x="120" y="300" width="72" height="48" rx="8" fill="#6366f1" opacity="0.5"/>
  <rect x="220" y="300" width="72" height="48" rx="8" fill="#6366f1" opacity="0.3"/>
  <rect x="320" y="300" width="72" height="48" rx="8" fill="#6366f1" opacity="0.7"/>
  <rect x="120" y="372" width="72" height="24" rx="6" fill="#6366f1" opacity="0.2"/>
  <rect x="220" y="372" width="72" height="24" rx="6" fill="#6366f1" opacity="0.4"/>
</svg>
